<?xml version="1.0" encoding="utf-8"?>
<!-- Generator: Adobe Illustrator 18.0.0, SVG Export Plug-In . SVG Version: 6.00 Build 0)  -->
<!DOCTYPE svg PUBLIC "-//W3C//DTD SVG 1.1//EN" "http://www.w3.org/Graphics/SVG/1.1/DTD/svg11.dtd">
<svg version="1.1" id="Layer_1" xmlns="http://www.w3.org/2000/svg" xmlns:xlink="http://www.w3.org/1999/xlink" x="0px" y="0px"
	 viewBox="0 0 363.6 246.3" enable-background="new 0 0 363.6 246.3" xml:space="preserve">
<g id="Rings">
	<path id="White_Background" fill="#FFFFFF" d="M181.8,243.7c98.8,0,179.2-54.1,179.2-120.6C361,56.7,280.6,2.6,181.8,2.6
		C83,2.6,2.6,56.7,2.6,123.1C2.6,189.6,83,243.7,181.8,243.7z"/>
	<path id="Outer_Ring" fill="none" stroke="#D2232A" stroke-width="5.136" d="M181.8,243.7c98.8,0,179.2-54.1,179.2-120.6
		C361,56.7,280.6,2.6,181.8,2.6C83,2.6,2.6,56.7,2.6,123.1C2.6,189.6,83,243.7,181.8,243.7z"/>
	<path id="Inner_Ring" fill="none" stroke="#D2232A" stroke-width="5.136" d="M181.8,233.4c93.1,0,168.9-49.5,168.9-110.3
		c0-60.8-75.8-110.3-168.9-110.3c-93.2,0-168.9,49.5-168.9,110.3C12.9,183.9,88.6,233.4,181.8,233.4z"/>
</g>
<g id="Sea_Bar">
	<path id="r" fill="#347D97" d="M271.5,200.1h-8.1v-27h13.3c2.3,0,4.8,0.3,6.8,1.7c2.2,1.4,3.2,3.8,3.2,6.5c0,3.5-1.5,5.7-4.6,7.1
		l4.7,11.8h-8.9l-3.8-10.3h-2.5V200.1z M271.5,184.1h2.9c1.8,0,3.9-0.3,3.9-2.6c0-0.9-0.5-1.8-1.3-2.2c-0.7-0.4-1.5-0.4-2.3-0.4
		h-3.2V184.1z"/>
	<path id="a_1_" fill="#347D97" d="M248.2,194.8H241l-1.7,5.3h-6.7l8.4-27h8.7l8.5,27h-8.5L248.2,194.8z M246.8,188.9l-2.2-7.8
		l-2.2,7.8H246.8z"/>
	<path id="B" fill="#347D97" d="M201.3,167.2h16.1c2.5,0,5,0.2,7.1,1.7c2.2,1.6,3.5,4.3,3.5,7c0,3.5-2.2,6.4-5.6,7.2v0.1
		c3.8,0.7,6.4,3.6,6.4,7.5c0,2.8-1,6-3.4,7.7c-2.5,1.8-6.1,1.9-9.1,1.9h-15.1V167.2z M214.6,179.8c1,0,2.1,0,2.8-0.6
		c0.6-0.6,1-1.4,1-2.2c0-2.4-2-2.8-3.9-2.8h-3.9v5.6H214.6z M214.9,192.8c1,0,2.1,0,2.9-0.6c0.7-0.5,1.2-1.4,1.2-2.3
		c0-1.1-0.6-2.1-1.6-2.6c-0.9-0.4-2-0.4-2.9-0.4h-4v6H214.9z"/>
	<path id="a" fill="#347D97" d="M156.8,194.8h-7.2l-1.7,5.3h-6.7l8.4-27h8.7l8.5,27h-8.5L156.8,194.8z M155.4,188.9l-2.2-7.8
		l-2.2,7.8H155.4z"/>
	<path id="e" fill="#347D97" d="M136.4,200.1h-20.3v-27h20.3v6.2h-12.2v3.9h9.8v6h-9.8v4.4h12.2V200.1z"/>
	<path id="S" fill="#347D97" d="M90.4,188.9c0.9,2.9,3.1,4,6,4c1.3,0,3.9-0.2,3.9-2c0-2-2.5-2.4-4-2.7c-6.2-1.2-13.5-2.9-13.5-10.7
		c0-3.2,1.6-6.4,4.2-8.3c2.7-1.9,6.2-2.5,9.5-2.5c5.7,0,11.2,2.4,13.2,8.1l-8.4,2.5c-1-2.4-2.8-3.3-5.3-3.3c-1.3,0-3.3,0.4-3.3,2.1
		c0,1.7,2.4,2.1,3.6,2.4c3.1,0.6,6.4,1.2,9.3,2.6c3.2,1.7,4.9,4.8,4.9,8.4c0,7.9-7.9,11.1-14.7,11.1c-6.9,0-13.1-2.9-14.8-10
		L90.4,188.9z"/>
</g>
<g id="Pop_x27_s">
	<path id="s" fill="#25408F" d="M287.2,87.9c1.6-1,3.5-1.6,5.8-1.9c2.2-0.3,4.2-0.3,5.9-0.1c1.7,0.2,2.9,0.6,3.5,1.1
		c0.6,0.5,0.2,1.1-1.2,1.8c-2.3,1.1-3.7,2.5-4.2,4c-0.4,1.5-0.4,3.3,0.1,5.3c0.5,2,1.4,4.3,2.7,6.8c1.2,2.5,2.4,5.2,3.5,8.1
		c2,5.6,2.8,11.2,2.6,16.9c-0.3,5.7-1.9,10.6-5,14.9c6.8-4,13.2-9.7,19.3-17.2c2-2.3,3.7-3.2,5.1-2.7c1.4,0.5,1.3,2-0.3,4.4
		c-0.7,1.1-2.1,2.9-4.2,5.4c-2.1,2.4-4.8,5-8.2,7.7c-3.4,2.7-7.5,5.3-12.4,7.7c-4.8,2.4-10.5,4.2-16.9,5.4
		c-3.6,0.7-7.3,1.1-11.3,1.1c-5.4,0-9.7-1-13-3c-3.3-2-5.6-4.5-7-7.5c-1.3-3-1.8-6.2-1.5-9.7c0.4-3.4,1.5-6.7,3.4-9.7
		s4.4-5.5,7.7-7.5c3.2-2,7-3,11.3-3c2.1,0,3.8,0.7,4.8,2.1c1.1,1.4,1.7,3,1.9,4.7c0.2,1.7,0,3.3-0.5,4.6c-0.5,1.4-1.3,2-2.1,2
		c-4.7,0-8.3,1.1-11,3.4c-2.7,2.3-4.3,4.8-4.8,7.6c-0.5,2.8,0.1,5.3,1.9,7.6c1.8,2.3,4.8,3.4,9.1,3.4c3.8,0,6.9-1.1,9.4-3.3
		c2.5-2.2,4.3-5,5.4-8.4c1.1-3.4,1.6-7.1,1.5-11.3c-0.1-4.2-0.8-8.2-2-12c-1.1-3.4-2.2-6.6-3.4-9.3c-1.2-2.8-1.9-5.4-2.3-7.7
		c-0.4-2.4-0.1-4.5,0.8-6.4C282.5,91.2,284.3,89.4,287.2,87.9z"/>
	<path id="_x27_" fill="#25408F" d="M263.5,68.8c0.5-1.5,1.4-2.9,2.5-4.1c1.2-1.3,2.4-2.3,3.8-3.1c1.4-0.8,2.7-1.5,4.1-1.9
		c1.3-0.4,2.5-0.5,3.4-0.2c1,0.2,1.6,0.8,1.8,1.8c0.3,1,0,2.3-0.8,4c-2,4.4-3.8,8.2-5.6,11.3c-1.7,3.1-3.4,5.7-4.8,7.7
		c-1.7,2.4-3.2,4.1-4.4,5.1c-1.2,1.1-2.2,1.6-2.8,1.6c-0.7,0-1-0.3-1.1-1.1c0-0.8,0.3-1.8,1.1-3.1c1.6-2.9,2.6-5.2,2.9-6.8
		c0.3-1.6,0.3-3,0.1-4.2c-0.2-1.1-0.4-2.2-0.7-3.2C262.9,71.7,263,70.4,263.5,68.8z"/>
	<path id="p" fill="#25408F" d="M253.7,127.4c1.6-2.3,2.9-3.2,4-2.7c1.1,0.5,1.1,2-0.2,4.4c-0.7,1.3-2.1,3.4-4,6.3
		c-2,2.9-4.8,6-8.5,9.1c-3.7,3.2-8.3,5.9-13.9,8.3c-5.6,2.4-12.3,3.5-20.1,3.5c-3.5,0.3-6.3-0.8-8.3-3.2c-0.6-0.6-0.8-1.2-0.6-1.9
		c0.1-0.7,0.5-1.4,1-1.9c0.5-0.6,1.1-0.9,1.7-1.1c0.6-0.1,1.2,0,1.8,0.4c1,0.7,2.1,1.1,3.2,1.1c2-0.3,4.2-1.8,6.7-4.4
		c2.5-2.6,4.9-5.9,7.2-9.9c2.3-3.9,4.5-8.2,6.6-12.8c2.1-4.6,3.6-8.9,4.8-13c1.1-4.1,1.7-7.6,1.7-10.5c0-2.9-0.9-4.7-2.6-5.3
		c-1.6-0.6-3.5,0.1-5.8,2.1c-2.3,2-4.8,4.7-7.2,8c-2.5,3.3-4.9,7-7.2,11.2c-2.3,4.2-4.3,8.1-5.9,11.8c-2.6,7.5-5.2,15.1-7.9,22.9
		c-2.7,7.8-5.2,15-7.4,21.7c-2.3,6.7-4.2,12.3-5.8,16.9c-1.6,4.6-2.7,7.4-3.1,8.4c-0.6,1.3-1.6,2.2-3.2,2.8
		c-1.6,0.6-3.2,0.9-4.8,0.9c-1.6,0-2.9-0.3-3.9-1c-1-0.6-1.3-1.5-0.9-2.7c0.4-1,1.6-4.1,3.4-9.3c1.8-5.2,4-11.5,6.6-18.9
		c2.6-7.4,5.3-15.3,8.3-23.9c3-8.5,5.7-16.5,8.3-24c2.6-7.4,4.7-13.9,6.5-19.2c1.8-5.4,2.9-8.7,3.3-10c0.4-1.6,1.5-2.8,3.1-3.8
		c1.6-0.9,3.3-1.4,5-1.5c1.7-0.1,3.1,0.2,4.3,0.8c1.1,0.6,1.5,1.6,1.1,3l-5.1,14.4c3.3-4.7,6.7-8.8,10.2-12.1
		c3.5-3.4,7-5.4,10.4-6.1c4.1-0.7,7.2-0.1,9.4,1.8c2.1,1.9,3.4,4.7,3.8,8.4c0.4,3.7,0.1,7.9-1,12.7c-1.1,4.8-2.7,9.7-4.8,14.7
		c-2.1,5-4.8,9.8-7.9,14.3c-3.1,4.5-6.5,8.3-10.2,11.5c5-1.4,9.9-4,14.8-7.7C245.3,138.1,249.7,133.3,253.7,127.4z"/>
	<path id="o" fill="#25408F" d="M210.9,100.3c1.4-1.9,2.6-2.5,3.4-1.8c0.9,0.6,0.7,2-0.4,4c-0.9,1.3-2.1,2.3-3.7,3.1
		c-1.6,0.8-3.5,1.3-5.5,1.6c-2.1,0.3-4.3,0.4-6.6,0.2c-2.3-0.1-4.6-0.5-6.7-1.1c-0.1,1.6-0.3,3.2-0.5,4.7c-0.2,1.6-0.5,3.2-1,4.9
		c-1.1,4.9-2.9,9.6-5.2,14.1c-2.3,4.5-5,8.6-8,12.1c-3,3.6-6.1,6.6-9.5,9c-3.3,2.4-6.7,4-10.1,4.7c-3.4,0.7-6.3,0.5-8.8-0.6
		c-2.5-1.1-4.4-3.1-5.9-5.8c-1.4-2.7-2.2-6-2.4-10c-0.2-3.9,0.3-8.3,1.6-13.2c1.1-4.9,2.9-9.6,5.2-14.1c2.3-4.5,5-8.6,8-12.1
		c3-3.6,6.1-6.6,9.5-9.1c3.3-2.5,6.7-4.1,10.1-4.8c4.8-1,8.7-0.1,11.7,2.8c3,2.9,4.8,7,5.3,12.5c1.7,0.7,3.5,1.2,5.4,1.5
		c1.9,0.3,3.8,0.4,5.6,0.3c1.8-0.1,3.5-0.3,5.1-0.8C209.1,102,210.2,101.3,210.9,100.3z M185,113.9c0.4-1.6,0.7-3.1,0.9-4.7
		c0.1-1.6,0.2-3.1,0.2-4.5c-3.7-1.4-6.5-3.4-8.4-5.9c-1.9-2.5-2.3-5-1.2-7.6h-1.3c-2.1,0.3-4.3,1.3-6.6,2.9
		c-2.3,1.6-4.4,3.7-6.3,6.2c-1.9,2.5-3.7,5.4-5.2,8.6c-1.6,3.2-2.8,6.6-3.6,10c-0.9,3.4-1.2,6.6-1.2,9.6c0.1,2.9,0.6,5.4,1.5,7.5
		c0.9,2.1,2.2,3.6,3.8,4.6c1.6,1,3.5,1.4,5.6,1.1c2.1-0.4,4.3-1.5,6.6-3.1c2.3-1.6,4.4-3.7,6.4-6.2c2-2.5,3.7-5.3,5.2-8.5
		C183,120.6,184.1,117.3,185,113.9z"/>
	<path id="P" fill="#25408F" d="M61.1,152.7c4,0,7.7-2.1,11.2-6.4c3.5-4.3,6.8-9.8,10-16.5c3.2-6.7,6.3-14.2,9.3-22.3
		c3-8.2,6.2-16,9.4-23.6c-4.7,5.7-10.1,10.7-16,14.8c-6,4.2-12.6,6.2-19.8,6.2c-5.8,0-10-1.5-12.7-4.5c-2.7-3-3.9-6.8-3.4-11.4
		c0.4-4.6,2.4-9.5,6-14.8c3.5-5.3,8.7-10.2,15.4-14.8c6.7-4.6,15-8.4,25-11.5c10-3.1,21.5-4.7,34.6-4.8h1.3c7.5,0,13.6,1.3,18.3,3.8
		c4.6,2.5,8.1,5.7,10.3,9.7c2.2,3.9,3.2,8.4,3.1,13.3c-0.1,4.9-1.2,9.9-3.2,14.7c-2,4.9-4.8,9.5-8.4,13.9c-3.6,4.4-7.8,8-12.6,10.9
		c-4.8,2.9-10.1,4.8-15.8,5.7c-5.8,0.9-11.8,0.3-18.1-1.8c-2.5,5.9-5.3,11.4-8.3,16.7c-3,5.2-6.3,9.9-9.8,14
		c-3.5,4.1-7.4,7.3-11.6,9.7c-4.2,2.4-8.7,3.5-13.6,3.5c-6.5,0-11.4-1.5-14.6-4.4c-3.2-2.9-5.2-6.2-5.8-9.9
		c-0.6-3.7,0.1-7.1,2.1-10.2c2-3.1,4.9-4.9,8.7-5.4c2.8-0.3,4.9,0.3,6.2,1.6c1.3,1.4,2.1,2.9,2.4,4.7c0.3,1.8,0.1,3.5-0.4,5
		c-0.6,1.6-1.4,2.4-2.4,2.4c-1.9,0-3.3,0.6-4.2,1.9c-0.9,1.3-1.2,2.7-0.9,4.2c0.3,1.5,1.1,2.9,2.5,4.1
		C56.4,152.1,58.4,152.7,61.1,152.7z M108.9,66.6c2.8-5.2,5.6-9.5,8.5-13c2.9-3.5,6-5.6,9.4-6.3c-7.8,0.4-15.1,2-21.9,4.6
		c-6.8,2.7-12.8,5.8-18.1,9.6c-5.3,3.7-9.8,7.7-13.5,12c-3.7,4.3-6.3,8.3-8,11.9c-1.6,3.7-2.1,6.7-1.5,9c0.6,2.4,2.6,3.5,6,3.5
		c4.1,0,8.2-1.1,12.3-3.4c4.1-2.3,7.8-5.1,11.2-8.4c3.4-3.3,6.5-6.7,9.2-10.3C105.1,72.2,107.2,69.2,108.9,66.6z M131.9,47
		c-1.6,0-3.3,1.9-5.1,5.6c-1.8,3.7-3.7,8.5-5.6,14.4c-2,5.9-4.2,12.5-6.6,19.9c-2.4,7.4-5.2,14.8-8.3,22.2c5,1.7,9.9,1.5,14.7-0.8
		c4.8-2.2,9-5.5,12.7-9.9c3.7-4.4,6.7-9.3,9.1-14.9c2.4-5.6,3.7-11,4.1-16.2c0.4-5.2-0.5-9.7-2.5-13.5c-2.1-3.8-5.6-6-10.6-6.8
		H131.9z"/>
</g>
</svg>
